<?xml version="1.0" encoding="iso-8859-1"?>
<!-- Generator: Adobe Illustrator 19.0.0, SVG Export Plug-In . SVG Version: 6.00 Build 0)  -->
<svg version="1.1" id="Capa_1" xmlns="http://www.w3.org/2000/svg" xmlns:xlink="http://www.w3.org/1999/xlink" x="0px" y="0px"
	 viewBox="0 0 512 512" style="enable-background:new 0 0 512 512;" xml:space="preserve">
<path style="fill:#68DEC8;" d="M368.219,119.734c-192.376,0-328.642,192.376-328.642,248.485c0,13.281,10.766,24.047,24.047,24.047
	h304.595c75.258,0,136.266-61.008,136.266-136.266S443.477,119.734,368.219,119.734z"/>
<path style="fill:#38C7C2;" d="M63.624,368.219c0-16.057,25.571-71.783,84.679-127.835c30.261-28.696,63.139-51.572,97.721-67.993
	c39.982-18.985,81.093-28.611,122.195-28.611c61.878,0,112.219,50.341,112.219,112.219s-50.341,112.219-112.219,112.219H63.624z"/>
<circle style="fill:#F0F0F1;" cx="368.219" cy="256" r="80.157"/>
<circle style="fill:#E1E0E4;" cx="368.219" cy="256" r="58.114"/>
<circle style="fill:#878493;" cx="368.219" cy="256" r="32.063"/>
<circle style="fill:#F082A6;" cx="151.796" cy="320.125" r="40.078"/>
<circle style="fill:#787485;" cx="151.796" cy="320.125" r="16.031"/>
<path d="M368.219,112.219c-45.82,0-91.488,10.653-135.732,31.662c-37.592,17.85-73.222,42.613-105.9,73.602
	c-52.15,49.452-83.891,102.265-92.273,135.206H7.515c-4.15,0-7.515,3.364-7.515,7.515s3.365,7.515,7.515,7.515H32.08
	c-0.002,0.163-0.017,0.34-0.017,0.501c0,17.403,14.159,31.562,31.562,31.562h229.448c4.15,0,7.515-3.364,7.515-7.515
	s-3.365-7.515-7.515-7.515H63.624c-9.116,0-16.532-7.415-16.532-16.532c0-0.16,0.017-0.338,0.02-0.501h96.669
	c7.182,0,14.243,0.14,21.215-1.877c48.677-9.01,76.963-49.953,115.565-108.789c0.566,47.859,39.667,86.619,87.658,86.619
	c48.342,0,87.671-39.329,87.671-87.671s-39.329-87.671-87.671-87.671c-28.373,0-53.638,13.552-69.672,34.52
	c-0.239,0.262-0.468,0.538-0.673,0.84c-0.137,0.202-0.271,0.4-0.407,0.602c-1.355,1.849-2.639,3.751-3.849,5.705
	c-7.632,11.359-14.683,22.116-21.529,32.565c-28.369,43.296-49.651,75.766-75.575,93.856c1.859-5.085,2.874-10.573,2.874-16.293
	c0-26.242-21.351-47.593-47.593-47.593s-47.592,21.352-47.592,47.594c0,12.589,4.922,24.043,12.931,32.564H49.816
	c9.114-30.504,40.713-80.301,87.112-124.301c39.833-37.773,122.848-101.14,231.291-101.14c70.994,0,128.751,57.758,128.751,128.751
	s-57.758,128.751-128.751,128.751h-39.577c-4.15,0-7.515,3.364-7.515,7.515s3.365,7.515,7.515,7.515h39.577
	C447.5,399.781,512,335.281,512,256S447.5,112.219,368.219,112.219z M368.219,183.358c40.055,0,72.642,32.587,72.642,72.642
	s-32.587,72.642-72.642,72.642S295.577,296.055,295.577,256c0-13.819,3.882-26.747,10.608-37.757
	c1.187-1.766,2.387-3.546,3.603-5.342C323.031,194.995,344.288,183.358,368.219,183.358z M151.796,287.562
	c17.955,0,32.564,14.608,32.564,32.564c0,14.466-9.486,26.754-22.561,30.986c-4.09,0.75-8.334,1.239-12.764,1.453
	c-16.667-1.408-29.802-15.413-29.802-32.438C119.233,302.169,133.841,287.562,151.796,287.562z"/>
<path d="M368.219,295.577c21.823,0,39.577-17.755,39.577-39.577s-17.755-39.577-39.577-39.577S328.642,234.177,328.642,256
	S346.397,295.577,368.219,295.577z M360.704,232.633v7.335c0,4.151,3.365,7.515,7.515,7.515s7.515-3.364,7.515-7.515v-7.335
	c7.501,2.418,13.434,8.351,15.852,15.852h-7.335c-4.15,0-7.515,3.364-7.515,7.515c0,4.151,3.365,7.515,7.515,7.515h7.335
	c-2.418,7.501-8.351,13.434-15.852,15.852v-7.335c0-4.151-3.365-7.515-7.515-7.515s-7.515,3.364-7.515,7.515v7.335
	c-7.501-2.418-13.434-8.351-15.852-15.852h7.335c4.15,0,7.515-3.364,7.515-7.515c0-4.151-3.365-7.515-7.515-7.515h-7.335
	C347.27,240.985,353.204,235.051,360.704,232.633z"/>
<path d="M151.796,343.671c12.983,0,23.546-10.563,23.546-23.546s-10.563-23.546-23.546-23.546s-23.546,10.563-23.546,23.546
	S138.813,343.671,151.796,343.671z M151.796,311.609c4.696,0,8.517,3.82,8.517,8.517c0,4.696-3.82,8.517-8.517,8.517
	s-8.517-3.82-8.517-8.517C143.28,315.429,147.1,311.609,151.796,311.609z"/>
<g>
</g>
<g>
</g>
<g>
</g>
<g>
</g>
<g>
</g>
<g>
</g>
<g>
</g>
<g>
</g>
<g>
</g>
<g>
</g>
<g>
</g>
<g>
</g>
<g>
</g>
<g>
</g>
<g>
</g>
</svg>
